<?xml version="1.0" encoding="utf-8"?>
<!-- Generator: Adobe Illustrator 22.0.1, SVG Export Plug-In . SVG Version: 6.00 Build 0)  -->
<svg version="1.1" id="Camada_1" xmlns="http://www.w3.org/2000/svg" xmlns:xlink="http://www.w3.org/1999/xlink" x="0px" y="0px"
	 viewBox="0 0 595.3 841.9" style="enable-background:new 0 0 595.3 841.9;" xml:space="preserve">
<path d="M198.4,311.7c6.8,0.8,11.1-14.6,18.7-47.9c18.2,19.4,18.4,24,23.3,24.5c14.3,1.6,8.7-10.6,27.2-50.5
	c5.7,14.9,12.6,29.6,18.7,44.4c1.5,3.7,8.6,4,12.6,1.5c10.1-6.4,13-15.1,17-23.2c7.3,50.6,10.4,50.3,15.9,50.9c4.4,0.5,6.6-1,7.1-4
	c0.9-6.3-8.3-57.1-9.6-64.4c-0.4-2.3-2.9-3.7-5.7-4c-13.8-1.5-21.4,21.7-26.2,29c-20.3-51.3-21.3-51.9-26.1-52.5
	c-7.4-0.8-12.2,3.1-31.1,53.1c-22.1-24.6-24.7-22.9-25.3-22.9c-4-0.4-8.6,1.8-9.1,4.5C196.5,297.9,192.7,311,198.4,311.7"/>
<polygon points="287,564.7 287,564.8 287,564.8 "/>
<path d="M392.9,440c3.9-8.5,13.4-43.8,9.5-61.3c-3-2.6-11,1.3-10.4,13.8c0.7,16.3,0.9,36.4-0.3,47.2
	C391.5,440.4,392.6,440.7,392.9,440"/>
<path d="M383.5,446.5c2.3-11.1,2.6-40.2,1.6-50c-0.4-4.3-7.5,1.6-9.8,9.8C373.7,412,378.6,470.4,383.5,446.5"/>
<polygon points="287,564.7 287,564.8 287,564.8 "/>
<path d="M199.4,493.2c-120.3-103.3,23-218.8,72.8-88.8c37.7-75.8,78.1-78.5,110.9-69.3c3.3,0.9,5.2-3.6,2.2-5.3
	c-49.6-28.2-99.7,9.4-113.3,43.9c-50.1-124.8-215.8,1.7-95.7,119.6H199.4z"/>
<path d="M380.9,493.2c30.9-23.2,56.4-62.2,39.8-122.7c-0.1-0.4-0.5-0.7-0.9-0.6c-26.9,5,20.6,94.6-93.5,115.7
	c-0.8,0.1-1.2-1-0.6-1.5c12.9-10.4,40.9-12.9,30.6-39.2c-0.5-1.3-2.1-1.8-3.3-1.1c-10,6.3-15,8.7-20.8,9.7
	c-23.6,5.1-38.2,20.4-45.6,39.7H380.9z"/>
<polygon points="162.3,639.3 166,624.2 169.2,624.2 169.2,646.3 166.1,646.3 166.1,633.9 163.4,646.3 161.2,646.3 158.4,633.9 
	158.4,646.3 155.4,646.3 155.4,624.2 158.5,624.2 "/>
<rect x="188.3" y="624.2" width="3.2" height="22.1"/>
<polygon points="210.6,624.2 213.8,624.2 216.8,637 216.8,624.2 219.7,624.2 219.7,646.3 216.5,646.3 213.6,633.9 213.6,646.3 
	210.6,646.3 "/>
<rect x="238.8" y="624.2" width="3.2" height="22.1"/>
<path d="M260.9,628.5c0-3.1,1.5-4.6,4.6-4.6c3.1,0,4.6,1.5,4.6,4.6v3h-3.2v-3c0-1-0.5-1.5-1.4-1.5h0c-0.9,0-1.4,0.5-1.4,1.5v2
	c0,1,1,2.2,3,3.6c2,1.4,3,3.1,3,5.1v2.8c0,3.1-1.5,4.6-4.6,4.6c-3.1,0-4.6-1.6-4.6-4.6v-3h3.2v3c0,1,0.5,1.5,1.4,1.5
	c0.9,0,1.4-0.5,1.4-1.5v-2.5c0-1.1-1-2.3-3-3.7c-2-1.4-3-3.1-3-5.2V628.5z"/>
<polygon points="297.1,624.2 297.1,627.3 294.1,627.3 294.1,646.3 290.9,646.3 290.9,627.3 288,627.3 288,624.2 "/>
<path d="M315.3,624.2h8.3v3.1h-5.1v6.3h4.4v3.1h-4.4v6.3h5.1v3.1h-8.3V624.2z M319.3,623.3h-1.8l1.6-2.8h2.5L319.3,623.3z"/>
<path d="M342,624.2h4.6c2.8,0,4.2,1.6,4.2,4.6v3.3c0,1.9-0.8,3.2-2.5,3.8l3.6,10.3h-3.5l-2.9-9.7l-0.4,0.1v9.7H342V624.2z
	 M345.2,627.3v6.3h0.7c0.4,0,0.7,0,0.9-0.1c0.6-0.2,0.9-0.7,0.9-1.4v-3.3c0-1-0.5-1.5-1.4-1.5H345.2z"/>
<rect x="369.9" y="624.2" width="3.2" height="22.1"/>
<path d="M401.1,642c0,3.1-1.5,4.6-4.6,4.6c-3,0-4.6-1.5-4.6-4.6v-13.5c0-3.1,1.5-4.6,4.6-4.6c3.1,0,4.6,1.5,4.6,4.6V642z M398,628.5
	c0-1-0.5-1.5-1.4-1.5h0c-0.9,0-1.4,0.5-1.4,1.5V642c0,1,0.5,1.5,1.4,1.5c0.9,0,1.4-0.5,1.4-1.5V628.5z"/>
<path d="M145.6,572.4l4.8,36.6h-15.1l-2.9-21.9h-15.2l-2.9,21.9h-15l4.8-36.5l10.5-66.8h20.4L145.6,572.4z M130.6,572.4l-5.7-42.9
	l-5.7,42.9H130.6z"/>
<path d="M201.2,589c0,14.5-7.1,21.7-21.4,21.7c-14.2,0-21.4-7.2-21.4-21.7v-63.2c0-14.5,7.1-21.7,21.4-21.7
	c14.3,0,21.4,7.2,21.4,21.7v13.9h-14.9v-13.9c0-4.6-2.2-7-6.5-7h-0.1c-4.3,0-6.4,2.3-6.4,7V589c0,4.7,2.2,7,6.5,7
	c4.4,0,6.5-2.3,6.5-7v-13.9h14.9V589z"/>
<path d="M255,589c0,14.5-7.1,21.7-21.4,21.7c-14.2,0-21.4-7.2-21.4-21.7v-63.2c0-14.5,7.1-21.7,21.4-21.7c14.3,0,21.4,7.2,21.4,21.7
	V589z M240.1,525.8c0-4.6-2.2-7-6.5-7h-0.1c-4.3,0-6.4,2.3-6.4,7V589c0,4.7,2.2,7,6.5,7c4.4,0,6.5-2.3,6.5-7V525.8z"/>
<polygon points="267.6,609 267.6,505.8 282.5,505.8 282.5,594.3 306.3,594.3 306.3,609 "/>
<polygon points="315.2,505.8 330.1,505.8 330.1,550 343.1,550 343.1,505.8 358,505.8 358,609 343.1,609 343.1,564.8 330.1,564.8 
	330.1,609 315.2,609 "/>
<polygon points="371.7,505.8 410.3,505.8 410.3,520.4 386.6,520.4 386.6,550 407,550 407,564.8 386.6,564.8 386.6,594.3 
	410.3,594.3 410.3,609 371.7,609 "/>
<path d="M421.4,505.8H443c13.2,0,19.8,7.3,19.8,21.7V543c0,9.1-3.9,15.1-11.7,17.9l16.7,48h-16.3l-13.4-45.4l-1.9,0.3V609h-14.9
	V505.8z M436.3,520.4V550h3.4c2.1,0,3.5-0.1,4.3-0.4c2.7-1.1,4.1-3.3,4.1-6.6v-15.5c0-4.7-2.2-7.1-6.5-7.1H436.3z"/>
</svg>
